<svg width="16" height="16" viewBox="0 0 16 16" fill="none" xmlns="http://www.w3.org/2000/svg">
<path d="M7.84 3.36003C5.09671 3.35994 3.38218 5.69323 4.75372 7.55997C6.12526 9.4267 9.55437 9.42682 10.9261 7.56019C11.2389 7.1345 11.4036 6.65161 11.4036 6.16006C11.4036 4.6136 9.80821 3.35996 7.84 3.36003ZM7.84 7.84008C6.19403 7.84014 5.16531 6.44016 5.98823 5.32012C6.81115 4.20008 8.86862 4.20001 9.69167 5.31999C9.87937 5.5754 9.97818 5.86513 9.97818 6.16006C9.97818 7.08788 9.02085 7.84004 7.84 7.84008ZM7.84 0C3.51213 0.00385625 0.0049079 2.75956 0 6.16006C0 8.35808 1.29271 10.6877 3.74182 12.8976C4.84229 13.8962 6.08086 14.7955 7.43464 15.5787C7.68013 15.7138 8.007 15.7138 8.2525 15.5787C9.60378 14.7951 10.8399 13.8959 11.9382 12.8976C14.3837 10.6877 15.68 8.35808 15.68 6.16006C15.6751 2.75956 12.1679 0.00385625 7.84 0ZM7.84 14.4201C6.36733 13.5101 1.42546 10.1676 1.42546 6.16006C1.42546 2.28023 6.77091 -0.144669 11.0473 1.79525C13.0319 2.69557 14.2545 4.35943 14.2545 6.16006C14.2545 10.1662 9.31267 13.5101 7.84 14.4201Z" fill="#445566"/>
</svg>
