<svg width="20" height="20" viewBox="0 0 16 16" fill="none" xmlns="http://www.w3.org/2000/svg">
<path d="M14.9251 10.5416L11.2316 8.88657L11.2214 8.88186C10.8319 8.71526 10.3846 8.75654 10.0321 8.99162C10.0117 9.00512 9.99205 9.01977 9.97331 9.03553L8.06505 10.6623C6.85611 10.0751 5.60798 8.83639 5.02076 7.64314L6.64992 5.70587C6.6656 5.68627 6.6805 5.66667 6.69461 5.6455C6.92459 5.29407 6.96344 4.85087 6.7981 4.46479V4.45538L5.13836 0.755668C4.91735 0.245674 4.38708 -0.0580694 3.83535 0.00929935C1.6377 0.298487 -0.0039678 2.17372 7.20304e-06 4.39031C7.20304e-06 10.6153 5.06467 15.68 11.2897 15.68C13.5062 15.6839 15.3815 14.0423 15.6707 11.8446C15.7382 11.2931 15.4348 10.7629 14.9251 10.5416ZM11.2897 14.4255C5.74985 14.4195 1.26046 9.93011 1.25441 4.39031C1.24831 2.80657 2.41846 1.46427 3.98823 1.2543C3.98792 1.25742 3.98792 1.26057 3.98823 1.26371L5.63464 4.94852L4.0141 6.88814C3.99766 6.90707 3.98271 6.92726 3.96941 6.94851C3.72945 7.31674 3.69971 7.7837 3.89101 8.17939C4.60132 9.63216 6.06506 11.0849 7.53349 11.7944C7.93215 11.984 8.40109 11.95 8.7683 11.7051C8.78843 11.6915 8.8078 11.6768 8.82631 11.6612L10.7322 10.0351L14.417 11.6855H14.4257C14.2182 13.2575 12.8754 14.4309 11.2897 14.4255Z" fill="#445566"/>
</svg>
