<svg width="53" height="39" viewBox="0 0 53 39" fill="none" xmlns="http://www.w3.org/2000/svg">
<path fill-rule="evenodd" clip-rule="evenodd" d="M9.63967 1.09572C10.1612 0.722814 10.8618 0.722814 11.3834 1.09572C17.8802 5.74098 20.8255 11.3098 21.0111 19.2996C21.0968 23.1148 20.7299 26.6081 19.6133 29.6258C18.4681 32.6453 16.4315 35.4351 13.4332 37.791C13.0549 38.0859 12.5585 38.182 12.0976 38.0495C11.1793 37.7857 11.023 36.6961 10.5115 36.0169C9.99974 36.6965 9.84439 37.7855 8.9254 38.0495C8.46452 38.182 7.96817 38.0859 7.58987 37.791C4.5915 35.4351 2.55499 32.6453 1.40971 29.6258C0.293102 26.6081 -0.0737632 23.1148 0.0119281 19.2996C0.197553 11.3098 3.1428 5.74098 9.63967 1.09572ZM12.9984 34.3495C14.8746 32.6228 16.0052 30.7385 16.8041 28.5721C17.8092 25.9226 18.0991 22.9965 18.0119 19.3695C17.8672 13.1394 16.4108 9.08494 11.9984 5.32054V16.3315C13.7236 16.776 14.4984 18.4699 14.4984 20.3355C14.4984 22.2012 13.7236 23.8951 11.9984 24.3395V33.3485C11.9984 33.3485 12.8001 34.0884 12.9984 34.3495ZM7.99835 34.3495C6.12206 32.6228 5.01787 30.7385 4.21893 28.5721C3.21389 25.9226 2.92391 22.9965 3.01112 19.3695C3.15557 13.1518 4.60442 9.07993 8.99835 5.32054V16.3315C7.27312 16.776 6.49835 18.4699 6.49835 20.3355C6.49835 22.2012 7.27312 23.8951 8.99835 24.3395V33.3485C8.99835 33.3485 8.18923 34.098 7.99835 34.3495ZM10.4984 18.3335C9.39378 18.3335 8.49835 19.2298 8.49835 20.3355C8.49835 21.4412 9.39378 22.3375 10.4984 22.3375C11.6029 22.3375 12.4984 21.4412 12.4984 20.3355C12.4984 19.2298 11.6029 18.3335 10.4984 18.3335Z" fill="#1188EE"/>
<path fill-rule="evenodd" clip-rule="evenodd" d="M40.6627 1.09572C41.1842 0.722814 41.8848 0.722814 42.4064 1.09572C48.9032 5.74098 51.8485 11.3098 52.0341 19.2996C52.1198 23.1148 51.7529 26.6081 50.6363 29.6258C49.4911 32.6453 47.4545 35.4351 44.4562 37.791C44.0779 38.0859 43.5815 38.182 43.1206 38.0495C42.2023 37.7857 42.046 36.6961 41.5345 36.0169C41.0228 36.6965 40.8674 37.7855 39.9484 38.0495C39.4875 38.182 38.9912 38.0859 38.6129 37.791C35.6145 35.4351 33.578 32.6453 32.4327 29.6258C31.3161 26.6081 30.9493 23.1148 31.035 19.2996C31.2206 11.3098 34.1658 5.74098 40.6627 1.09572ZM44.0214 34.3495C45.8976 32.6228 47.0282 30.7385 47.8271 28.5721C48.8322 25.9226 49.1221 22.9965 49.0349 19.3695C48.8902 13.1394 47.4338 9.08494 43.0214 5.32054V16.3315C44.7466 16.776 45.5214 18.4699 45.5214 20.3355C45.5214 22.2012 44.7466 23.8951 43.0214 24.3395V33.3485C43.0214 33.3485 43.8231 34.0884 44.0214 34.3495ZM39.0214 34.3495C37.1451 32.6228 36.0409 30.7385 35.242 28.5721C34.2369 25.9226 33.9469 22.9965 34.0341 19.3695C34.1786 13.1518 35.6274 9.07993 40.0214 5.32054V16.3315C38.2961 16.776 37.5214 18.4699 37.5214 20.3355C37.5214 22.2012 38.2961 23.8951 40.0214 24.3395V33.3485C40.0214 33.3485 39.2123 34.098 39.0214 34.3495ZM41.5214 18.3335C40.4168 18.3335 39.5214 19.2298 39.5214 20.3355C39.5214 21.4412 40.4168 22.3375 41.5214 22.3375C42.6259 22.3375 43.5214 21.4412 43.5214 20.3355C43.5214 19.2298 42.6259 18.3335 41.5214 18.3335Z" fill="#1188EE"/>
</svg>
