<svg width="86" height="39" viewBox="0 0 86 39" fill="none" xmlns="http://www.w3.org/2000/svg">
<path fill-rule="evenodd" clip-rule="evenodd" d="M9.63967 1.09572C10.1612 0.722814 10.8618 0.722814 11.3834 1.09572C17.8802 5.74098 20.8255 11.3098 21.0111 19.2996C21.0968 23.1148 20.7299 26.6081 19.6133 29.6258C18.4681 32.6453 16.4315 35.4351 13.4332 37.791C13.0549 38.0859 12.5585 38.182 12.0976 38.0495C11.1793 37.7857 11.023 36.6961 10.5115 36.0169C9.99974 36.6965 9.84439 37.7855 8.9254 38.0495C8.46452 38.182 7.96817 38.0859 7.58987 37.791C4.5915 35.4351 2.55499 32.6453 1.40971 29.6258C0.293102 26.6081 -0.0737632 23.1148 0.0119281 19.2996C0.197553 11.3098 3.1428 5.74098 9.63967 1.09572ZM12.9984 34.3495C14.8746 32.6228 16.0052 30.7385 16.8041 28.5721C17.8092 25.9226 18.0991 22.9965 18.0119 19.3695C17.8672 13.1394 16.4108 9.08494 11.9984 5.32054V16.3315C13.7236 16.776 14.4984 18.4699 14.4984 20.3355C14.4984 22.2012 13.7236 23.8951 11.9984 24.3395V33.3485C11.9984 33.3485 12.8001 34.0884 12.9984 34.3495ZM7.99835 34.3495C6.12206 32.6228 5.01787 30.7385 4.21893 28.5721C3.21389 25.9226 2.92391 22.9965 3.01112 19.3695C3.15557 13.1518 4.60442 9.07993 8.99835 5.32054V16.3315C7.27312 16.776 6.49835 18.4699 6.49835 20.3355C6.49835 22.2012 7.27312 23.8951 8.99835 24.3395V33.3485C8.99835 33.3485 8.18923 34.098 7.99835 34.3495ZM10.4984 18.3335C9.39378 18.3335 8.49835 19.2298 8.49835 20.3355C8.49835 21.4412 9.39378 22.3375 10.4984 22.3375C11.6029 22.3375 12.4984 21.4412 12.4984 20.3355C12.4984 19.2298 11.6029 18.3335 10.4984 18.3335Z" fill="#1188EE"/>
<path fill-rule="evenodd" clip-rule="evenodd" d="M41.6627 1.09572C42.1842 0.722814 42.8848 0.722814 43.4064 1.09572C49.9032 5.74098 52.8485 11.3098 53.0341 19.2996C53.1198 23.1148 52.7529 26.6081 51.6363 29.6258C50.4911 32.6453 48.4545 35.4351 45.4562 37.791C45.0779 38.0859 44.5815 38.182 44.1206 38.0495C43.2023 37.7857 43.046 36.6961 42.5345 36.0169C42.0228 36.6965 41.8674 37.7855 40.9484 38.0495C40.4875 38.182 39.9912 38.0859 39.6129 37.791C36.6145 35.4351 34.578 32.6453 33.4327 29.6258C32.3161 26.6081 31.9493 23.1148 32.035 19.2996C32.2206 11.3098 35.1658 5.74098 41.6627 1.09572ZM45.0214 34.3495C46.8976 32.6228 48.0282 30.7385 48.8271 28.5721C49.8322 25.9226 50.1221 22.9965 50.0349 19.3695C49.8902 13.1394 48.4338 9.08494 44.0214 5.32054V16.3315C45.7466 16.776 46.5214 18.4699 46.5214 20.3355C46.5214 22.2012 45.7466 23.8951 44.0214 24.3395V33.3485C44.0214 33.3485 44.8231 34.0884 45.0214 34.3495ZM40.0214 34.3495C38.1451 32.6228 37.0409 30.7385 36.242 28.5721C35.2369 25.9226 34.9469 22.9965 35.0341 19.3695C35.1786 13.1518 36.6274 9.07993 41.0214 5.32054V16.3315C39.2961 16.776 38.5214 18.4699 38.5214 20.3355C38.5214 22.2012 39.2961 23.8951 41.0214 24.3395V33.3485C41.0214 33.3485 40.2123 34.098 40.0214 34.3495ZM42.5214 18.3335C41.4168 18.3335 40.5214 19.2298 40.5214 20.3355C40.5214 21.4412 41.4168 22.3375 42.5214 22.3375C43.6259 22.3375 44.5214 21.4412 44.5214 20.3355C44.5214 19.2298 43.6259 18.3335 42.5214 18.3335Z" fill="#1188EE"/>
<path fill-rule="evenodd" clip-rule="evenodd" d="M73.6857 1.09572C74.2073 0.722814 74.9079 0.722814 75.4295 1.09572C81.9263 5.74098 84.8716 11.3098 85.0572 19.2996C85.1429 23.1148 84.776 26.6081 83.6594 29.6258C82.5142 32.6453 80.4776 35.4351 77.4793 37.791C77.101 38.0859 76.6046 38.182 76.1437 38.0495C75.2254 37.7857 75.0691 36.6961 74.5576 36.0169C74.0458 36.6965 73.8904 37.7855 72.9715 38.0495C72.5106 38.182 72.0142 38.0859 71.6359 37.791C68.6376 35.4351 66.6011 32.6453 65.4558 29.6258C64.3392 26.6081 63.9723 23.1148 64.058 19.2996C64.2436 11.3098 67.1889 5.74098 73.6857 1.09572ZM77.0445 34.3495C78.9207 32.6228 80.0513 30.7385 80.8502 28.5721C81.8553 25.9226 82.1452 22.9965 82.058 19.3695C81.9133 13.1394 80.4569 9.08494 76.0445 5.32054V16.3315C77.7697 16.776 78.5445 18.4699 78.5445 20.3355C78.5445 22.2012 77.7697 23.8951 76.0445 24.3395V33.3485C76.0445 33.3485 76.8462 34.0884 77.0445 34.3495ZM72.0444 34.3495C70.1681 32.6228 69.0639 30.7385 68.265 28.5721C67.26 25.9226 66.97 22.9965 67.0572 19.3695C67.2016 13.1518 68.6505 9.07993 73.0444 5.32054V16.3315C71.3192 16.776 70.5444 18.4699 70.5444 20.3355C70.5444 22.2012 71.3192 23.8951 73.0444 24.3395V33.3485C73.0444 33.3485 72.2353 34.098 72.0444 34.3495ZM74.5445 18.3335C73.4398 18.3335 72.5444 19.2298 72.5444 20.3355C72.5444 21.4412 73.4398 22.3375 74.5445 22.3375C75.649 22.3375 76.5445 21.4412 76.5445 20.3355C76.5445 19.2298 75.649 18.3335 74.5445 18.3335Z" fill="#1188EE"/>
</svg>
