<svg width="146" height="38" viewBox="0 0 146 38" fill="none" xmlns="http://www.w3.org/2000/svg">
<path d="M22.8216 7.27972C24.8645 7.27972 26.5281 5.6479 26.5281 3.63986C26.5281 1.63374 24.8664 0 22.8216 0C20.7788 0 19.1152 1.63182 19.1152 3.63986C19.1152 5.64599 20.7769 7.27972 22.8216 7.27972ZM22.8216 1.06469C24.268 1.06469 25.4438 2.21936 25.4438 3.63972C25.4438 5.06008 24.268 6.21474 22.8216 6.21474C21.3753 6.21474 20.1995 5.06008 20.1995 3.63972C20.1995 2.21936 21.3753 1.06469 22.8216 1.06469ZM2.30033 33.8942C3.55422 33.1812 4.85196 32.4458 7.13103 33.4825C7.59981 33.6958 8.02094 33.9017 8.39253 34.0813C9.62544 34.6802 10.5154 35.1143 11.6016 35.1143C12.2704 35.1143 13.0136 34.9496 13.9569 34.5585C13.9912 34.5435 14.0217 34.5286 14.056 34.5155H14.0579C14.7134 34.2366 15.268 33.9428 15.7596 33.6808C17.549 32.7264 18.6294 32.15 22.1854 33.7763C22.5608 33.9484 22.9114 34.0925 23.243 34.2123H23.2449C24.2587 34.581 25.0838 34.725 25.787 34.725C27.0885 34.725 27.967 34.2291 28.8264 33.7444C29.985 33.0913 31.0789 32.4738 33.4571 33.1531L33.4895 33.1624C34.7986 33.5442 37.0987 34.1861 37.7771 34.1861C38.0763 34.1861 38.3183 33.9484 38.3183 33.6546C38.3183 33.3608 38.0763 33.1231 37.7771 33.1231C37.4036 33.1231 35.8048 32.7301 33.7982 32.1443L33.7601 32.1331C30.9398 31.3284 29.5315 32.1219 28.2871 32.8236C27.986 32.9939 27.6945 33.1568 27.3876 33.2934V24.4865C27.3876 24.4828 27.3857 24.4791 27.3857 24.4753C27.3857 24.4716 27.3876 24.4678 27.3876 24.4641C27.3819 24.3125 27.3838 24.1703 27.3838 24.0318C27.3895 23.5003 27.3933 22.9501 26.9188 22.2446V22.2427C26.9093 22.2296 26.9036 22.2165 26.8941 22.2016C26.8769 22.1772 26.854 22.1641 26.835 22.1454C26.8159 22.1248 26.8045 22.1005 26.7816 22.0837L26.7568 22.065C30.2498 21.9377 36.0545 21.4773 38.7449 19.8286C38.9908 19.6771 39.0727 19.3627 38.9298 19.1138C37.1957 16.1139 30.0707 12.8015 23.7591 10.9992L23.761 10.9824C23.761 10.9749 23.7591 10.9693 23.7591 10.9637C23.7591 10.9562 23.7629 10.9506 23.7648 10.9449C23.8334 9.74725 22.9473 8.43167 21.5066 7.59329C20.0927 6.76985 17.8764 6.32077 15.9043 7.52966C15.8872 7.54089 15.8776 7.55586 15.8624 7.56709C15.8471 7.57832 15.8281 7.58393 15.8147 7.59703L13.7662 9.5358C7.72731 9.43287 4.02268 10.1702 0.443914 10.8851L0.434386 10.8869C0.228578 10.9281 0.0646992 11.0834 0.0151497 11.2837C-0.0343949 11.4839 0.0399229 11.6954 0.203806 11.8245L2.72685 13.8007L0.21527 15.672C0.0647286 15.7843 -0.0153106 15.964 0.00374911 16.1474C0.022805 16.3308 0.137143 16.4936 0.306739 16.574C0.455378 16.6451 0.624974 16.7406 0.840334 16.8622C1.82932 17.4199 3.66061 18.451 8.49887 19.8676C8.67419 20.7865 9.29351 21.2749 9.91472 21.4209C10.0538 21.4546 10.1987 21.4696 10.3473 21.4696C10.8961 21.4696 11.4792 21.2413 11.9232 20.7996C13.2 21.1271 14.4024 21.4078 15.6868 21.5893C15.824 21.9243 16.0374 22.2125 16.3252 22.4783L13.4287 33.6206C11.4983 34.3953 10.7665 34.0435 8.87998 33.1265C8.50267 32.9431 8.07393 32.7354 7.5918 32.5146C4.80196 31.2458 3.11742 32.2021 1.7646 32.9712C1.52068 33.1097 1.2882 33.2407 1.06333 33.3511C0.796546 33.4821 0.687929 33.8021 0.821323 34.0641C0.954717 34.3261 1.28058 34.4328 1.54737 34.3018C1.80082 34.1764 2.04662 34.0379 2.30581 33.8901L2.30033 33.8942ZM18.6677 31.6841L20.6305 24.6273L22.336 25.3759L22.8467 32.8988C22.7781 32.8689 22.7133 32.8426 22.6409 32.8108C20.9202 32.023 19.6777 31.7084 18.6677 31.6841ZM37.6802 19.1908C35.4658 20.2575 30.9763 20.9387 25.4213 21.036L22.7058 18.9438L23.6148 12.0667C29.2152 13.6892 35.6698 16.5971 37.6802 19.1908ZM3.93166 14.2333C4.06505 14.1342 4.14318 13.9807 4.14509 13.816C4.14699 13.6513 4.07267 13.496 3.94118 13.3931L1.78212 11.7014C4.74914 11.1213 7.96008 10.5879 12.6462 10.5879L10.4853 12.6333C10.4205 12.6951 10.3728 12.7718 10.3442 12.856L8.56062 18.3821C8.55872 18.3896 8.56062 18.399 8.55872 18.4065C8.55681 18.414 8.55109 18.4214 8.54919 18.4289C8.52442 18.5412 8.50345 18.6498 8.48821 18.7564C4.24062 17.4932 2.49124 16.5669 1.52874 16.0261L3.93363 14.2333L3.93166 14.2333ZM10.1613 20.3866C9.61441 20.2574 9.40098 19.6006 9.6049 18.6724L11.3371 13.3053L16.5106 8.41158C17.8312 7.62188 19.4872 7.65556 20.9507 8.50703C22.0274 9.13394 22.721 10.0846 22.6791 10.8762L21.591 19.1086C21.5662 19.2939 21.6443 19.4791 21.793 19.5951L26.0349 22.8644C26.3035 23.2762 26.3035 23.5494 26.2978 24.021C26.2959 24.1595 26.294 24.3167 26.3016 24.487V33.6176C25.6785 33.7075 24.9353 33.6476 23.9596 33.3313L23.3937 24.9887C23.3803 24.7922 23.2584 24.6182 23.0735 24.5377L17.9303 22.279C16.8288 21.7288 16.5277 21.289 16.5487 20.2616L17.7111 11.6718C17.7416 11.4435 17.6196 11.2227 17.41 11.1217C17.1985 11.0225 16.947 11.0674 16.785 11.2321L13.353 14.7372C13.3015 14.7896 13.2634 14.8495 13.2367 14.9168L11.5217 19.3651C11.5179 19.3745 11.5198 19.3838 11.5179 19.3932C11.5141 19.4026 11.5084 19.41 11.5046 19.4194C11.3064 20.1661 10.653 20.5026 10.1613 20.3866ZM12.4957 19.8476C12.5072 19.8139 12.5205 19.7821 12.5319 19.7466L12.5357 19.7409L14.2127 15.3956L16.4213 13.1387L15.4723 20.1562C15.4704 20.1656 15.4742 20.1749 15.4742 20.1861C15.4742 20.1955 15.4685 20.2049 15.4685 20.2142C15.4665 20.3097 15.4742 20.3939 15.4761 20.4837C14.4813 20.3265 13.5285 20.1094 12.4976 19.8493L12.4957 19.8476ZM17.4502 23.2292C17.4559 23.2311 17.4616 23.2329 17.4673 23.2348C17.4711 23.2367 17.4711 23.2386 17.475 23.2404L19.6321 24.1874L17.5169 31.7908C16.7109 31.9667 16.0191 32.3316 15.2435 32.7452C15.0663 32.8406 14.8833 32.936 14.6966 33.0334L17.271 23.1319C17.332 23.1655 17.3854 23.1992 17.4521 23.231L17.4502 23.2292ZM38.9681 36.5403C38.9681 36.8341 38.7261 37.0718 38.4269 37.0718C37.7466 37.0718 35.4466 36.4299 34.1374 36.0481L34.1069 36.0388C31.7287 35.3594 30.6349 35.977 29.4763 36.6301C27.9994 37.4648 26.4711 38.3256 22.8334 36.662C19.2775 35.0357 18.1971 35.6121 16.4076 36.5665C15.8912 36.8416 15.3062 37.1541 14.6068 37.4442C13.6635 37.8353 12.9204 38 12.2515 38C11.1653 38 10.2754 37.5677 9.04247 36.967C8.67088 36.7855 8.24974 36.5815 7.78098 36.3682C5.50186 35.3314 4.20416 36.0669 2.95028 36.7799C2.69112 36.9277 2.44527 37.0662 2.19184 37.1916C1.92505 37.3226 1.59922 37.2159 1.46579 36.9539C1.3324 36.6919 1.44102 36.3719 1.7078 36.2409C1.93267 36.1305 2.16324 35.9995 2.40907 35.861C3.76203 35.0919 5.44663 34.1356 8.23627 35.4044C8.71839 35.6234 9.14525 35.8311 9.52445 36.0163C11.4491 36.952 12.1694 37.3038 14.1856 36.4673C14.8373 36.1979 15.3728 35.9115 15.8911 35.6346C17.8348 34.5959 19.2412 33.8474 23.2906 35.7001C26.4177 37.1317 27.5858 36.473 28.9349 35.7113C30.1773 35.0095 31.5856 34.2142 34.4079 35.0208L34.4441 35.032C36.4526 35.6177 38.0514 36.0107 38.4249 36.0107C38.7241 36.0107 38.9661 36.2484 38.9661 36.5422L38.9681 36.5403Z" fill="white"/>
<path d="M57.36 27.98C55.696 27.98 54.416 27.692 53.52 27.116C52.624 26.524 52.176 25.66 52.176 24.524C52.176 23.948 52.368 23.476 52.752 23.108C53.152 22.724 53.664 22.532 54.288 22.532C54.704 22.548 54.992 22.652 55.152 22.844C55.328 23.036 55.416 23.18 55.416 23.276C55.416 23.308 55.344 23.364 55.2 23.444C55.056 23.508 54.912 23.636 54.768 23.828C54.624 24.004 54.552 24.284 54.552 24.668C54.552 25.388 54.776 25.964 55.224 26.396C55.672 26.812 56.384 27.02 57.36 27.02C58.048 27.02 58.632 26.892 59.112 26.636C59.608 26.364 59.984 26.02 60.24 25.604C60.496 25.172 60.624 24.732 60.624 24.284C60.624 23.612 60.432 23.06 60.048 22.628C59.664 22.196 59.16 21.828 58.536 21.524C57.928 21.204 57.28 20.9 56.592 20.612C55.904 20.324 55.248 19.996 54.624 19.628C54.016 19.26 53.512 18.804 53.112 18.26C52.712 17.7 52.504 17.004 52.488 16.172C52.472 15.164 52.688 14.348 53.136 13.724C53.584 13.084 54.208 12.62 55.008 12.332C55.808 12.028 56.696 11.876 57.672 11.876C58.392 11.876 59.096 11.98 59.784 12.188C60.488 12.396 61.064 12.724 61.512 13.172C61.976 13.604 62.208 14.18 62.208 14.9C62.208 15.476 62.008 15.956 61.608 16.34C61.224 16.708 60.72 16.892 60.096 16.892C59.68 16.86 59.384 16.756 59.208 16.58C59.048 16.388 58.968 16.244 58.968 16.148C58.968 16.1 59.064 16.044 59.256 15.98C59.448 15.9 59.64 15.772 59.832 15.596C60.024 15.404 60.12 15.124 60.12 14.756C60.12 14.148 59.888 13.684 59.424 13.364C58.96 13.028 58.384 12.86 57.696 12.86C56.656 12.86 55.896 13.108 55.416 13.604C54.952 14.084 54.72 14.628 54.72 15.236C54.72 15.828 54.88 16.308 55.2 16.676C55.52 17.044 56 17.404 56.64 17.756C57.36 18.14 58.088 18.5 58.824 18.836C59.56 19.156 60.24 19.516 60.864 19.916C61.504 20.316 62.016 20.82 62.4 21.428C62.784 22.02 62.976 22.788 62.976 23.732C62.976 24.548 62.72 25.276 62.208 25.916C61.712 26.556 61.04 27.06 60.192 27.428C59.344 27.796 58.4 27.98 57.36 27.98Z" fill="white"/>
<path d="M69.51 27.788C68.422 27.788 67.558 27.46 66.918 26.804C66.278 26.148 65.958 25.284 65.958 24.212V19.772C65.958 19.484 65.942 19.22 65.91 18.98C65.894 18.724 65.806 18.524 65.646 18.38C65.486 18.22 65.182 18.14 64.734 18.14C64.59 18.14 64.454 18.124 64.326 18.092C64.214 18.044 64.158 17.9 64.158 17.66C64.158 17.42 64.286 17.276 64.542 17.228C65.278 17.116 65.838 17.004 66.222 16.892C66.622 16.78 66.926 16.684 67.134 16.604C67.342 16.524 67.526 16.476 67.686 16.46C67.814 16.444 67.918 16.468 67.998 16.532C68.094 16.596 68.142 16.724 68.142 16.916V24.188C68.142 24.716 68.254 25.148 68.478 25.484C68.718 25.82 69.014 26.068 69.366 26.228C69.718 26.388 70.078 26.468 70.446 26.468C71.006 26.468 71.494 26.372 71.91 26.18C72.326 25.972 72.662 25.74 72.918 25.484C73.174 25.212 73.342 24.988 73.422 24.812V19.772C73.422 19.484 73.406 19.22 73.374 18.98C73.358 18.724 73.27 18.524 73.11 18.38C72.95 18.22 72.646 18.14 72.198 18.14C72.054 18.14 71.918 18.124 71.79 18.092C71.678 18.044 71.622 17.9 71.622 17.66C71.622 17.42 71.75 17.276 72.006 17.228C72.742 17.116 73.302 17.004 73.686 16.892C74.086 16.78 74.39 16.684 74.598 16.604C74.806 16.524 74.99 16.476 75.15 16.46C75.278 16.444 75.382 16.468 75.462 16.532C75.558 16.596 75.606 16.724 75.606 16.916V25.22C75.606 26.164 76.238 26.636 77.502 26.636C77.678 26.636 77.79 26.684 77.838 26.78C77.886 26.876 77.91 26.98 77.91 27.092C77.91 27.316 77.774 27.452 77.502 27.5L73.638 27.764C73.526 27.764 73.462 27.716 73.446 27.62C73.43 27.524 73.422 27.412 73.422 27.284V25.94H73.374C73.07 26.228 72.742 26.516 72.39 26.804C72.054 27.092 71.654 27.324 71.19 27.5C70.742 27.692 70.182 27.788 69.51 27.788Z" fill="white"/>
<path d="M79.2229 27.572C79.1109 27.572 79.0149 27.524 78.9349 27.428C78.8709 27.316 78.8389 27.204 78.8389 27.092C78.8709 26.852 78.9349 26.724 79.0309 26.708C79.1269 26.676 79.2549 26.66 79.4149 26.66C79.8629 26.66 80.1669 26.588 80.3269 26.444C80.4869 26.284 80.5749 26.076 80.5909 25.82C80.6229 25.564 80.6389 25.3 80.6389 25.028V19.532C80.6389 19.244 80.6229 18.98 80.5909 18.74C80.5749 18.484 80.4869 18.284 80.3269 18.14C80.1669 17.98 79.8629 17.9 79.4149 17.9C79.2709 17.9 79.1349 17.884 79.0069 17.852C78.8949 17.804 78.8389 17.66 78.8389 17.42C78.8389 17.18 78.9669 17.036 79.2229 16.988C79.9589 16.876 80.5189 16.764 80.9029 16.652C81.3029 16.54 81.5989 16.444 81.7909 16.364C81.9989 16.284 82.1829 16.236 82.3429 16.22C82.4709 16.204 82.5749 16.228 82.6549 16.292C82.7509 16.356 82.7989 16.484 82.7989 16.676V18.164H82.8709C83.4149 17.636 83.9749 17.204 84.5509 16.868C85.1269 16.516 85.6549 16.34 86.1349 16.34C86.6949 16.34 87.1189 16.548 87.4069 16.964C87.7109 17.38 87.8629 17.82 87.8629 18.284C87.8629 18.684 87.7349 19.076 87.4789 19.46C87.2229 19.828 86.8389 20.012 86.3269 20.012C86.0709 20.012 85.8629 19.964 85.7029 19.868C85.5589 19.756 85.4789 19.676 85.4629 19.628C85.4629 19.596 85.5349 19.5 85.6789 19.34C85.8389 19.18 85.9189 18.98 85.9189 18.74C85.9189 18.452 85.8389 18.22 85.6789 18.044C85.5349 17.868 85.3349 17.78 85.0789 17.78C84.8069 17.78 84.4549 17.916 84.0229 18.188C83.6069 18.46 83.2069 18.788 82.8229 19.172V25.028C82.8229 25.3 82.8309 25.564 82.8469 25.82C82.8789 26.076 82.9749 26.284 83.1349 26.444C83.3109 26.588 83.6229 26.66 84.0709 26.66C84.2149 26.66 84.3349 26.676 84.4309 26.708C84.5429 26.724 84.6069 26.852 84.6229 27.092C84.6229 27.204 84.5909 27.316 84.5269 27.428C84.4629 27.524 84.3669 27.572 84.2389 27.572C83.7749 27.54 83.3429 27.516 82.9429 27.5C82.5589 27.5 82.1509 27.5 81.7189 27.5C81.2869 27.5 80.8789 27.5 80.4949 27.5C80.1109 27.516 79.6869 27.54 79.2229 27.572Z" fill="white"/>
<path d="M89.6342 27.572C89.5062 27.572 89.4102 27.524 89.3462 27.428C89.2822 27.316 89.2502 27.204 89.2502 27.092C89.2662 26.852 89.3222 26.724 89.4182 26.708C89.5142 26.676 89.6422 26.66 89.8022 26.66C90.2502 26.66 90.5542 26.588 90.7142 26.444C90.8902 26.284 90.9862 26.076 91.0022 25.82C91.0182 25.564 91.0262 25.3 91.0262 25.028V17.564H89.4182C89.2902 17.564 89.1862 17.516 89.1062 17.42C89.0422 17.308 89.0102 17.196 89.0102 17.084C89.0262 16.828 89.0822 16.692 89.1782 16.676C89.2902 16.644 89.4262 16.628 89.5862 16.628H91.0262V15.62C91.0262 14.548 91.1942 13.596 91.5302 12.764C91.8662 11.932 92.3622 11.268 93.0182 10.772C93.6902 10.276 94.5062 10.02 95.4662 10.004C95.9622 10.004 96.4422 10.1 96.9062 10.292C97.3702 10.484 97.7542 10.756 98.0582 11.108C98.3622 11.444 98.5142 11.86 98.5142 12.356C98.5142 12.804 98.3782 13.22 98.1062 13.604C97.8342 13.972 97.4422 14.156 96.9302 14.156C96.5942 14.156 96.3302 14.068 96.1382 13.892C95.9622 13.716 95.8742 13.596 95.8742 13.532C95.8742 13.484 95.9382 13.412 96.0662 13.316C96.2102 13.204 96.3462 13.044 96.4742 12.836C96.6182 12.628 96.6902 12.372 96.6902 12.068C96.6902 11.716 96.5542 11.42 96.2822 11.18C96.0262 10.924 95.6982 10.796 95.2982 10.796C94.7702 10.796 94.3622 10.956 94.0742 11.276C93.7862 11.596 93.5862 11.996 93.4742 12.476C93.3622 12.956 93.2902 13.444 93.2582 13.94C93.2422 14.436 93.2342 14.852 93.2342 15.188V16.628H95.5862C95.7462 16.628 95.8822 16.644 95.9942 16.676C96.1062 16.692 96.1702 16.828 96.1862 17.084C96.1862 17.196 96.1462 17.308 96.0662 17.42C96.0022 17.516 95.9062 17.564 95.7782 17.564H93.2342V25.028C93.2342 25.492 93.2662 25.844 93.3302 26.084C93.4102 26.324 93.5702 26.484 93.8102 26.564C94.0662 26.628 94.4422 26.66 94.9382 26.66C95.0982 26.66 95.2262 26.676 95.3222 26.708C95.4182 26.724 95.4742 26.852 95.4902 27.092C95.4902 27.204 95.4582 27.316 95.3942 27.428C95.3462 27.524 95.2582 27.572 95.1302 27.572C94.6662 27.54 94.1542 27.516 93.5942 27.5C93.0342 27.5 92.5462 27.5 92.1302 27.5C91.6982 27.5 91.2902 27.5 90.9062 27.5C90.5222 27.516 90.0982 27.54 89.6342 27.572Z" fill="white"/>
<path d="M99.5974 27.572C99.4374 27.572 99.3254 27.516 99.2614 27.404C99.1974 27.292 99.1654 27.172 99.1654 27.044C99.1814 26.772 99.2454 26.62 99.3574 26.588C99.4694 26.556 99.6054 26.54 99.7654 26.54C100.277 26.54 100.629 26.452 100.821 26.276C101.029 26.084 101.157 25.852 101.205 25.58C101.253 25.292 101.277 24.996 101.277 24.692L101.325 15.164C101.325 14.412 101.197 13.932 100.941 13.724C100.685 13.516 100.277 13.356 99.7174 13.244C99.4774 13.196 99.3174 13.156 99.2374 13.124C99.1574 13.076 99.1174 12.932 99.1174 12.692C99.1174 12.42 99.2134 12.276 99.4054 12.26C99.5974 12.228 99.8214 12.212 100.077 12.212C100.973 12.212 101.693 12.284 102.237 12.428C102.797 12.572 103.285 12.828 103.701 13.196C104.133 13.564 104.597 14.084 105.093 14.756L111.669 23.396H111.741L111.693 15.164C111.693 14.86 111.669 14.572 111.621 14.3C111.573 14.012 111.445 13.78 111.237 13.604C111.045 13.412 110.693 13.316 110.181 13.316C110.021 13.316 109.885 13.3 109.773 13.268C109.661 13.236 109.589 13.084 109.557 12.812C109.557 12.684 109.589 12.564 109.653 12.452C109.733 12.34 109.845 12.284 109.989 12.284C110.341 12.3 110.621 12.316 110.829 12.332C111.053 12.332 111.269 12.34 111.477 12.356C111.701 12.356 111.973 12.356 112.293 12.356C112.613 12.356 112.877 12.356 113.085 12.356C113.293 12.34 113.501 12.332 113.709 12.332C113.933 12.316 114.213 12.3 114.549 12.284C114.709 12.284 114.821 12.34 114.885 12.452C114.949 12.564 114.981 12.684 114.981 12.812C114.965 13.084 114.901 13.236 114.789 13.268C114.693 13.3 114.557 13.316 114.381 13.316C113.885 13.316 113.533 13.412 113.325 13.604C113.117 13.78 112.989 14.012 112.941 14.3C112.909 14.572 112.885 14.86 112.869 15.164L112.821 27.26C112.805 27.388 112.725 27.468 112.581 27.5C112.453 27.548 112.333 27.572 112.221 27.572C111.917 27.572 111.685 27.468 111.525 27.26L102.477 15.164H102.405L102.453 24.692C102.469 24.996 102.493 25.292 102.525 25.58C102.573 25.852 102.701 26.084 102.909 26.276C103.117 26.452 103.469 26.54 103.965 26.54C104.141 26.54 104.285 26.556 104.397 26.588C104.509 26.62 104.573 26.772 104.589 27.044C104.589 27.172 104.549 27.292 104.469 27.404C104.405 27.516 104.301 27.572 104.157 27.572C103.821 27.556 103.533 27.54 103.293 27.524C103.069 27.524 102.845 27.516 102.621 27.5C102.413 27.5 102.149 27.5 101.829 27.5C101.509 27.5 101.245 27.5 101.037 27.5C100.845 27.516 100.645 27.524 100.437 27.524C100.229 27.54 99.9494 27.556 99.5974 27.572Z" fill="white"/>
<path d="M121.045 27.788C119.813 27.788 118.773 27.524 117.925 26.996C117.093 26.468 116.469 25.764 116.053 24.884C115.637 24.004 115.429 23.044 115.429 22.004C115.429 21.3 115.549 20.62 115.789 19.964C116.045 19.292 116.405 18.684 116.869 18.14C117.333 17.58 117.893 17.14 118.549 16.82C119.205 16.5 119.949 16.34 120.781 16.34C122.253 16.34 123.357 16.724 124.093 17.492C124.845 18.244 125.277 19.204 125.389 20.372C125.389 20.932 125.229 21.3 124.909 21.476C124.605 21.652 124.205 21.74 123.709 21.74H117.877C117.877 22.668 118.005 23.5 118.261 24.236C118.517 24.956 118.917 25.532 119.461 25.964C120.021 26.38 120.757 26.588 121.669 26.588C122.341 26.588 122.917 26.444 123.397 26.156C123.877 25.868 124.341 25.364 124.789 24.644C124.917 24.484 125.093 24.476 125.317 24.62C125.445 24.684 125.525 24.788 125.557 24.932C125.589 25.06 125.573 25.172 125.509 25.268C125.013 26.052 124.389 26.668 123.637 27.116C122.885 27.564 122.021 27.788 121.045 27.788ZM117.877 20.828H121.789C122.173 20.828 122.477 20.756 122.701 20.612C122.941 20.452 123.069 20.188 123.085 19.82C123.085 19.132 122.893 18.524 122.509 17.996C122.141 17.452 121.565 17.18 120.781 17.18C119.981 17.18 119.309 17.5 118.765 18.14C118.237 18.78 117.941 19.676 117.877 20.828Z" fill="white"/>
<path d="M131.724 27.788C130.492 27.788 129.46 27.572 128.628 27.14C127.812 26.692 127.404 26.052 127.404 25.22C127.404 24.756 127.54 24.38 127.812 24.092C128.1 23.804 128.468 23.66 128.916 23.66C129.204 23.66 129.436 23.74 129.612 23.9C129.804 24.044 129.9 24.148 129.9 24.212C129.9 24.26 129.804 24.372 129.612 24.548C129.436 24.708 129.348 24.972 129.348 25.34C129.348 25.788 129.556 26.164 129.972 26.468C130.404 26.756 131.052 26.9 131.916 26.9C132.668 26.9 133.252 26.74 133.668 26.42C134.1 26.084 134.316 25.62 134.316 25.028C134.316 24.548 134.156 24.18 133.836 23.924C133.532 23.652 133.132 23.436 132.636 23.276C132.156 23.116 131.636 22.956 131.076 22.796C130.532 22.636 130.012 22.436 129.516 22.196C129.02 21.956 128.612 21.628 128.292 21.212C127.988 20.78 127.836 20.212 127.836 19.508C127.836 18.788 128.052 18.196 128.484 17.732C128.916 17.268 129.468 16.924 130.14 16.7C130.812 16.46 131.492 16.34 132.18 16.34C132.772 16.34 133.332 16.428 133.86 16.604C134.388 16.764 134.82 17.012 135.156 17.348C135.508 17.684 135.684 18.108 135.684 18.62C135.684 19.02 135.556 19.38 135.3 19.7C135.044 20.02 134.692 20.18 134.244 20.18C133.956 20.18 133.716 20.108 133.524 19.964C133.348 19.804 133.26 19.692 133.26 19.628C133.26 19.596 133.316 19.54 133.428 19.46C133.556 19.364 133.676 19.244 133.788 19.1C133.9 18.94 133.956 18.74 133.956 18.5C133.924 18.036 133.7 17.692 133.284 17.468C132.868 17.244 132.404 17.132 131.892 17.132C131.332 17.132 130.812 17.268 130.332 17.54C129.852 17.812 129.612 18.204 129.612 18.716C129.612 19.18 129.708 19.54 129.9 19.796C130.108 20.052 130.428 20.276 130.86 20.468C131.308 20.644 131.884 20.844 132.588 21.068C133.292 21.292 133.908 21.524 134.436 21.764C134.98 22.004 135.396 22.324 135.684 22.724C135.988 23.108 136.14 23.636 136.14 24.308C136.14 24.98 135.948 25.58 135.564 26.108C135.18 26.636 134.652 27.052 133.98 27.356C133.324 27.644 132.572 27.788 131.724 27.788Z" fill="white"/>
<path d="M142.317 27.908C141.837 27.908 141.381 27.788 140.949 27.548C140.517 27.308 140.157 26.94 139.869 26.444C139.597 25.948 139.461 25.324 139.461 24.572V17.516L138.069 17.564C137.957 17.564 137.869 17.524 137.805 17.444C137.757 17.348 137.733 17.244 137.733 17.132C137.733 16.812 137.845 16.628 138.069 16.58C138.661 16.468 139.109 16.284 139.413 16.028C139.717 15.756 139.949 15.436 140.109 15.068C140.285 14.7 140.445 14.3 140.589 13.868C140.637 13.74 140.709 13.66 140.805 13.628C140.901 13.58 141.005 13.556 141.117 13.556C141.213 13.556 141.317 13.58 141.429 13.628C141.557 13.676 141.621 13.764 141.621 13.892L141.453 16.628L144.261 16.46C144.405 16.444 144.501 16.484 144.549 16.58C144.597 16.676 144.621 16.788 144.621 16.916C144.621 17.076 144.589 17.236 144.525 17.396C144.477 17.556 144.413 17.636 144.333 17.636L141.645 17.564V24.86C141.645 25.324 141.741 25.748 141.933 26.132C142.141 26.516 142.509 26.708 143.037 26.708C143.213 26.708 143.413 26.692 143.637 26.66C143.861 26.628 144.101 26.556 144.357 26.444C144.421 26.412 144.485 26.388 144.549 26.372C144.613 26.34 144.677 26.324 144.741 26.324C144.869 26.324 144.965 26.38 145.029 26.492C145.093 26.588 145.149 26.692 145.197 26.804C145.245 26.948 145.205 27.06 145.077 27.14C144.581 27.46 144.125 27.668 143.709 27.764C143.293 27.86 142.829 27.908 142.317 27.908Z" fill="white"/>
</svg>
