<svg width="39" height="38" viewBox="0 0 39 38" fill="none" xmlns="http://www.w3.org/2000/svg">
<path d="M22.8216 7.27972C24.8645 7.27972 26.5281 5.6479 26.5281 3.63986C26.5281 1.63374 24.8664 0 22.8216 0C20.7788 0 19.1152 1.63182 19.1152 3.63986C19.1152 5.64599 20.7769 7.27972 22.8216 7.27972ZM22.8216 1.06469C24.268 1.06469 25.4438 2.21936 25.4438 3.63972C25.4438 5.06008 24.268 6.21474 22.8216 6.21474C21.3753 6.21474 20.1995 5.06008 20.1995 3.63972C20.1995 2.21936 21.3753 1.06469 22.8216 1.06469ZM2.30033 33.8942C3.55422 33.1812 4.85196 32.4458 7.13103 33.4825C7.59981 33.6958 8.02094 33.9017 8.39253 34.0813C9.62544 34.6802 10.5154 35.1143 11.6016 35.1143C12.2704 35.1143 13.0136 34.9496 13.9569 34.5585C13.9912 34.5435 14.0217 34.5286 14.056 34.5155H14.0579C14.7134 34.2366 15.268 33.9428 15.7596 33.6808C17.549 32.7264 18.6294 32.15 22.1854 33.7763C22.5608 33.9484 22.9114 34.0925 23.243 34.2123H23.2449C24.2587 34.581 25.0838 34.725 25.787 34.725C27.0885 34.725 27.967 34.2291 28.8264 33.7444C29.985 33.0913 31.0789 32.4738 33.4571 33.1531L33.4895 33.1624C34.7986 33.5442 37.0987 34.1861 37.7771 34.1861C38.0763 34.1861 38.3183 33.9484 38.3183 33.6546C38.3183 33.3608 38.0763 33.1231 37.7771 33.1231C37.4036 33.1231 35.8048 32.7301 33.7982 32.1443L33.7601 32.1331C30.9398 31.3284 29.5315 32.1219 28.2871 32.8236C27.986 32.9939 27.6945 33.1568 27.3876 33.2934V24.4865C27.3876 24.4828 27.3857 24.4791 27.3857 24.4753C27.3857 24.4716 27.3876 24.4678 27.3876 24.4641C27.3819 24.3125 27.3838 24.1703 27.3838 24.0318C27.3895 23.5003 27.3933 22.9501 26.9188 22.2446V22.2427C26.9093 22.2296 26.9036 22.2165 26.8941 22.2016C26.8769 22.1772 26.854 22.1641 26.835 22.1454C26.8159 22.1248 26.8045 22.1005 26.7816 22.0837L26.7568 22.065C30.2498 21.9377 36.0545 21.4773 38.7449 19.8286C38.9908 19.6771 39.0727 19.3627 38.9298 19.1138C37.1957 16.1139 30.0707 12.8015 23.7591 10.9992L23.761 10.9824C23.761 10.9749 23.7591 10.9693 23.7591 10.9637C23.7591 10.9562 23.7629 10.9506 23.7648 10.9449C23.8334 9.74725 22.9473 8.43167 21.5066 7.59329C20.0927 6.76985 17.8764 6.32077 15.9043 7.52966C15.8872 7.54089 15.8776 7.55586 15.8624 7.56709C15.8471 7.57832 15.8281 7.58393 15.8147 7.59703L13.7662 9.5358C7.72731 9.43287 4.02268 10.1702 0.443914 10.8851L0.434386 10.8869C0.228578 10.9281 0.0646992 11.0834 0.0151497 11.2837C-0.0343949 11.4839 0.0399229 11.6954 0.203806 11.8245L2.72685 13.8007L0.21527 15.672C0.0647286 15.7843 -0.0153106 15.964 0.00374911 16.1474C0.022805 16.3308 0.137143 16.4936 0.306739 16.574C0.455378 16.6451 0.624974 16.7406 0.840334 16.8622C1.82932 17.4199 3.66061 18.451 8.49887 19.8676C8.67419 20.7865 9.29351 21.2749 9.91472 21.4209C10.0538 21.4546 10.1987 21.4696 10.3473 21.4696C10.8961 21.4696 11.4792 21.2413 11.9232 20.7996C13.2 21.1271 14.4024 21.4078 15.6868 21.5893C15.824 21.9243 16.0374 22.2125 16.3252 22.4783L13.4287 33.6206C11.4983 34.3953 10.7665 34.0435 8.87998 33.1265C8.50267 32.9431 8.07393 32.7354 7.5918 32.5146C4.80196 31.2458 3.11742 32.2021 1.7646 32.9712C1.52068 33.1097 1.2882 33.2407 1.06333 33.3511C0.796546 33.4821 0.687929 33.8021 0.821323 34.0641C0.954717 34.3261 1.28058 34.4328 1.54737 34.3018C1.80082 34.1764 2.04662 34.0379 2.30581 33.8901L2.30033 33.8942ZM18.6677 31.6841L20.6305 24.6273L22.336 25.3759L22.8467 32.8988C22.7781 32.8689 22.7133 32.8426 22.6409 32.8108C20.9202 32.023 19.6777 31.7084 18.6677 31.6841ZM37.6802 19.1908C35.4658 20.2575 30.9763 20.9387 25.4213 21.036L22.7058 18.9438L23.6148 12.0667C29.2152 13.6892 35.6698 16.5971 37.6802 19.1908ZM3.93166 14.2333C4.06505 14.1342 4.14318 13.9807 4.14509 13.816C4.14699 13.6513 4.07267 13.496 3.94118 13.3931L1.78212 11.7014C4.74914 11.1213 7.96008 10.5879 12.6462 10.5879L10.4853 12.6333C10.4205 12.6951 10.3728 12.7718 10.3442 12.856L8.56062 18.3821C8.55872 18.3896 8.56062 18.399 8.55872 18.4065C8.55681 18.414 8.55109 18.4214 8.54919 18.4289C8.52442 18.5412 8.50345 18.6498 8.48821 18.7564C4.24062 17.4932 2.49124 16.5669 1.52874 16.0261L3.93363 14.2333L3.93166 14.2333ZM10.1613 20.3866C9.61441 20.2574 9.40098 19.6006 9.6049 18.6724L11.3371 13.3053L16.5106 8.41158C17.8312 7.62188 19.4872 7.65556 20.9507 8.50703C22.0274 9.13394 22.721 10.0846 22.6791 10.8762L21.591 19.1086C21.5662 19.2939 21.6443 19.4791 21.793 19.5951L26.0349 22.8644C26.3035 23.2762 26.3035 23.5494 26.2978 24.021C26.2959 24.1595 26.294 24.3167 26.3016 24.487V33.6176C25.6785 33.7075 24.9353 33.6476 23.9596 33.3313L23.3937 24.9887C23.3803 24.7922 23.2584 24.6182 23.0735 24.5377L17.9303 22.279C16.8288 21.7288 16.5277 21.289 16.5487 20.2616L17.7111 11.6718C17.7416 11.4435 17.6196 11.2227 17.41 11.1217C17.1985 11.0225 16.947 11.0674 16.785 11.2321L13.353 14.7372C13.3015 14.7896 13.2634 14.8495 13.2367 14.9168L11.5217 19.3651C11.5179 19.3745 11.5198 19.3838 11.5179 19.3932C11.5141 19.4026 11.5084 19.41 11.5046 19.4194C11.3064 20.1661 10.653 20.5026 10.1613 20.3866ZM12.4957 19.8476C12.5072 19.8139 12.5205 19.7821 12.5319 19.7466L12.5357 19.7409L14.2127 15.3956L16.4213 13.1387L15.4723 20.1562C15.4704 20.1656 15.4742 20.1749 15.4742 20.1861C15.4742 20.1955 15.4685 20.2049 15.4685 20.2142C15.4665 20.3097 15.4742 20.3939 15.4761 20.4837C14.4813 20.3265 13.5285 20.1094 12.4976 19.8493L12.4957 19.8476ZM17.4502 23.2292C17.4559 23.2311 17.4616 23.2329 17.4673 23.2348C17.4711 23.2367 17.4711 23.2386 17.475 23.2404L19.6321 24.1874L17.5169 31.7908C16.7109 31.9667 16.0191 32.3316 15.2435 32.7452C15.0663 32.8406 14.8833 32.936 14.6966 33.0334L17.271 23.1319C17.332 23.1655 17.3854 23.1992 17.4521 23.231L17.4502 23.2292ZM38.9681 36.5403C38.9681 36.8341 38.7261 37.0718 38.4269 37.0718C37.7466 37.0718 35.4466 36.4299 34.1374 36.0481L34.1069 36.0388C31.7287 35.3594 30.6349 35.977 29.4763 36.6301C27.9994 37.4648 26.4711 38.3256 22.8334 36.662C19.2775 35.0357 18.1971 35.6121 16.4076 36.5665C15.8912 36.8416 15.3062 37.1541 14.6068 37.4442C13.6635 37.8353 12.9204 38 12.2515 38C11.1653 38 10.2754 37.5677 9.04247 36.967C8.67088 36.7855 8.24974 36.5815 7.78098 36.3682C5.50186 35.3314 4.20416 36.0669 2.95028 36.7799C2.69112 36.9277 2.44527 37.0662 2.19184 37.1916C1.92505 37.3226 1.59922 37.2159 1.46579 36.9539C1.3324 36.6919 1.44102 36.3719 1.7078 36.2409C1.93267 36.1305 2.16324 35.9995 2.40907 35.861C3.76203 35.0919 5.44663 34.1356 8.23627 35.4044C8.71839 35.6234 9.14525 35.8311 9.52445 36.0163C11.4491 36.952 12.1694 37.3038 14.1856 36.4673C14.8373 36.1979 15.3728 35.9115 15.8911 35.6346C17.8348 34.5959 19.2412 33.8474 23.2906 35.7001C26.4177 37.1317 27.5858 36.473 28.9349 35.7113C30.1773 35.0095 31.5856 34.2142 34.4079 35.0208L34.4441 35.032C36.4526 35.6177 38.0514 36.0107 38.4249 36.0107C38.7241 36.0107 38.9661 36.2484 38.9661 36.5422L38.9681 36.5403Z" fill="#17222d"/>
</svg>
