<svg width="20" height="20" viewBox="0 0 16 16" fill="none" xmlns="http://www.w3.org/2000/svg">
<path d="M7.8517 0C1.81646 0 -1.95556 6.53333 1.06206 11.76C4.07967 16.9867 11.6237 16.9867 14.6413 11.76C15.3294 10.5682 15.6917 9.21621 15.6917 7.84C15.6871 3.51198 12.1797 0.004575 7.8517 0ZM7.8517 14.4738C2.74496 14.4741 -0.446704 8.94601 2.10647 4.52333C4.65964 0.100656 11.0431 0.100369 13.5966 4.52282C14.179 5.53135 14.4855 6.67542 14.4855 7.84C14.4814 11.5021 11.5137 14.4697 7.8517 14.4738ZM12.6763 7.84C12.6763 8.17306 12.4063 8.44306 12.0732 8.44308H7.8517C7.51861 8.44309 7.24862 8.17308 7.24862 7.84V3.61846C7.24862 3.15421 7.75118 2.86406 8.15323 3.09618C8.33983 3.20391 8.45477 3.403 8.45477 3.61846V7.23693H12.0732C12.4063 7.23694 12.6763 7.50694 12.6763 7.84Z" fill="#445566"/>
</svg>
